<svg xmlns="http://www.w3.org/2000/svg" viewBox="0 0 64 64" fill="none">
  <!-- Warden: Massive thick pentagon shield with inner solid pentagon and leg lines -->
  <!-- Outer pentagon (shield) - thick and imposing -->
  <polygon points="32,8 54,24 46,50 18,50 10,24"
    stroke="#D4D4D4" stroke-width="3" stroke-linecap="round" stroke-linejoin="round"/>
  <!-- Inner solid pentagon -->
  <polygon points="32,18 44,28 40,42 24,42 20,28"
    stroke="#D4D4D4" stroke-width="1.8" stroke-linecap="round" stroke-linejoin="round" fill="#D4D4D4" fill-opacity="0.15"/>
  <!-- Shield detail lines (reinforcement struts) -->
  <line x1="32" y1="8" x2="32" y2="18" stroke="#D4D4D4" stroke-width="1" stroke-linecap="round" opacity="0.5"/>
  <line x1="54" y1="24" x2="44" y2="28" stroke="#D4D4D4" stroke-width="1" stroke-linecap="round" opacity="0.5"/>
  <line x1="46" y1="50" x2="40" y2="42" stroke="#D4D4D4" stroke-width="1" stroke-linecap="round" opacity="0.5"/>
  <line x1="18" y1="50" x2="24" y2="42" stroke="#D4D4D4" stroke-width="1" stroke-linecap="round" opacity="0.5"/>
  <line x1="10" y1="24" x2="20" y2="28" stroke="#D4D4D4" stroke-width="1" stroke-linecap="round" opacity="0.5"/>
  <!-- Inner shield emblem (small pentagon) -->
  <polygon points="32,26 37,30 35,36 29,36 27,30"
    stroke="#D4D4D4" stroke-width="1" stroke-linecap="round" stroke-linejoin="round" opacity="0.6"/>
  <!-- Legs/stance lines at bottom -->
  <line x1="26" y1="50" x2="24" y2="58" stroke="#D4D4D4" stroke-width="2.5" stroke-linecap="round"/>
  <line x1="28" y1="50" x2="26" y2="58" stroke="#D4D4D4" stroke-width="2.5" stroke-linecap="round"/>
  <line x1="36" y1="50" x2="38" y2="58" stroke="#D4D4D4" stroke-width="2.5" stroke-linecap="round"/>
  <line x1="38" y1="50" x2="40" y2="58" stroke="#D4D4D4" stroke-width="2.5" stroke-linecap="round"/>
</svg>