<svg xmlns="http://www.w3.org/2000/svg" viewBox="0 0 64 64" fill="none">
  <!-- Octagonal body -->
  <polygon points="26,12 38,12 48,22 48,42 38,52 26,52 16,42 16,22" stroke="#FFBF00" stroke-width="2" stroke-linecap="round" stroke-linejoin="round"/>
  <!-- Web/tripwire lines extending from 4 sides in cross pattern -->
  <!-- Top web line -->
  <line x1="32" y1="12" x2="32" y2="2" stroke="#FFBF00" stroke-width="1" stroke-linecap="round" opacity="0.7"/>
  <line x1="30" y1="4" x2="34" y2="4" stroke="#FFBF00" stroke-width="0.8" stroke-linecap="round" opacity="0.5"/>
  <!-- Bottom web line -->
  <line x1="32" y1="52" x2="32" y2="62" stroke="#FFBF00" stroke-width="1" stroke-linecap="round" opacity="0.7"/>
  <line x1="30" y1="60" x2="34" y2="60" stroke="#FFBF00" stroke-width="0.8" stroke-linecap="round" opacity="0.5"/>
  <!-- Right web line -->
  <line x1="48" y1="32" x2="60" y2="32" stroke="#FFBF00" stroke-width="1" stroke-linecap="round" opacity="0.7"/>
  <line x1="58" y1="30" x2="58" y2="34" stroke="#FFBF00" stroke-width="0.8" stroke-linecap="round" opacity="0.5"/>
  <!-- Left web line -->
  <line x1="16" y1="32" x2="4" y2="32" stroke="#FFBF00" stroke-width="1" stroke-linecap="round" opacity="0.7"/>
  <line x1="6" y1="30" x2="6" y2="34" stroke="#FFBF00" stroke-width="0.8" stroke-linecap="round" opacity="0.5"/>
  <!-- Spider-like inner detail - small legs/fangs -->
  <circle cx="32" cy="32" r="3" stroke="#FFBF00" stroke-width="1" fill="none"/>
  <circle cx="32" cy="32" r="1" fill="#FFBF00"/>
  <!-- Diagonal web threads (thinner) -->
  <line x1="22" y1="18" x2="10" y2="8" stroke="#FFBF00" stroke-width="0.6" stroke-linecap="round" opacity="0.4"/>
  <line x1="42" y1="18" x2="54" y2="8" stroke="#FFBF00" stroke-width="0.6" stroke-linecap="round" opacity="0.4"/>
  <line x1="42" y1="46" x2="54" y2="56" stroke="#FFBF00" stroke-width="0.6" stroke-linecap="round" opacity="0.4"/>
  <line x1="22" y1="46" x2="10" y2="56" stroke="#FFBF00" stroke-width="0.6" stroke-linecap="round" opacity="0.4"/>
</svg>
