<svg xmlns="http://www.w3.org/2000/svg" viewBox="0 0 64 64" fill="none">
  <!-- Central circle body -->
  <circle cx="32" cy="32" r="7" stroke="#FF00CC" stroke-width="2" fill="none"/>
  <circle cx="32" cy="32" r="2" fill="#FF00CC"/>
  <!-- Tentacle 1 - upper right, sinuous curve -->
  <path d="M 38,27 C 44,20 50,22 52,14 C 54,10 56,8 58,6" stroke="#FF00CC" stroke-width="2" stroke-linecap="round" fill="none"/>
  <path d="M 58,6" stroke="#FF00CC" stroke-width="0.5" stroke-linecap="round"/>
  <!-- Tentacle 2 - lower right, sinuous curve -->
  <path d="M 38,37 C 44,44 42,50 48,54 C 50,56 52,58 53,60" stroke="#FF00CC" stroke-width="2" stroke-linecap="round" fill="none"/>
  <!-- Tentacle 3 - left, sinuous curve -->
  <path d="M 25,32 C 18,28 14,34 8,30 C 6,29 4,27 3,26" stroke="#FF00CC" stroke-width="2" stroke-linecap="round" fill="none"/>
  <!-- Thin tips (thinner secondary strokes near ends) -->
  <path d="M 52,14 C 54,10 56,8 58,6" stroke="#FF00CC" stroke-width="0.8" stroke-linecap="round" fill="none" opacity="0.7"/>
  <path d="M 48,54 C 50,56 52,58 53,60" stroke="#FF00CC" stroke-width="0.8" stroke-linecap="round" fill="none" opacity="0.7"/>
  <path d="M 8,30 C 6,29 4,27 3,26" stroke="#FF00CC" stroke-width="0.8" stroke-linecap="round" fill="none" opacity="0.7"/>
</svg>
