<svg xmlns="http://www.w3.org/2000/svg" viewBox="0 0 64 64" fill="none">
  <!-- Outer shield shape (rounded crest) -->
  <path d="M32 6 L52 20 Q54 22 53 25 L46 48 Q44 52 40 54 L32 58 L24 54 Q20 52 18 48 L11 25 Q10 22 12 20 Z"
        stroke="#00f0ff" stroke-width="1.5" stroke-linecap="round" stroke-linejoin="round"/>
  <!-- Inner shield shape (double outline for reinforcement) -->
  <path d="M32 11 L48 22 Q49.5 23.5 49 26 L43 46 Q41.5 49 38 50.5 L32 53.5 L26 50.5 Q22.5 49 21 46 L15 26 Q14.5 23.5 16 22 Z"
        stroke="#00f0ff" stroke-width="1" stroke-linecap="round" stroke-linejoin="round" opacity="0.6"/>
  <!-- Plus symbol inside -->
  <line x1="32" y1="27" x2="32" y2="43" stroke="#00f0ff" stroke-width="2" stroke-linecap="round"/>
  <line x1="24" y1="35" x2="40" y2="35" stroke="#00f0ff" stroke-width="2" stroke-linecap="round"/>
  <!-- Corner accent dots -->
  <circle cx="32" cy="6" r="1.2" fill="#00f0ff" opacity="0.8"/>
  <circle cx="52" cy="20" r="1" fill="#00f0ff" opacity="0.5"/>
  <circle cx="12" cy="20" r="1" fill="#00f0ff" opacity="0.5"/>
</svg>
