<svg xmlns="http://www.w3.org/2000/svg" viewBox="0 0 64 64" fill="none">
  <!-- Mire: Pulsing mauve core with organic tendrils extending outward -->
  <!-- Core - circle with double ring -->
  <circle cx="32" cy="32" r="7" stroke="#9F0E7F" stroke-width="2" stroke-linecap="round"/>
  <circle cx="32" cy="32" r="5" stroke="#9F0E7F" stroke-width="1.2" stroke-linecap="round" opacity="0.7"/>
  <circle cx="32" cy="32" r="2.5" fill="#9F0E7F" opacity="0.6"/>
  <circle cx="32" cy="32" r="1.2" fill="#CF4EAF" opacity="0.8"/>
  <!-- Tendril 1 - upper right, branching -->
  <path d="M37,27 Q42,22 48,16 Q50,14 52,10" stroke="#9F0E7F" stroke-width="1.8" stroke-linecap="round" opacity="0.9"/>
  <path d="M44,20 Q48,20 52,18" stroke="#9F0E7F" stroke-width="1" stroke-linecap="round" opacity="0.6"/>
  <path d="M46,18 Q46,14 48,10" stroke="#9F0E7F" stroke-width="0.6" stroke-linecap="round" opacity="0.4"/>
  <!-- Tendril 2 - right -->
  <path d="M39,32 Q46,30 52,32 Q56,33 60,31" stroke="#9F0E7F" stroke-width="1.6" stroke-linecap="round" opacity="0.85"/>
  <path d="M50,32 Q52,36 56,38" stroke="#9F0E7F" stroke-width="0.8" stroke-linecap="round" opacity="0.5"/>
  <!-- Tendril 3 - lower right -->
  <path d="M37,37 Q42,42 44,48 Q46,52 48,56" stroke="#9F0E7F" stroke-width="1.5" stroke-linecap="round" opacity="0.8"/>
  <path d="M43,46 Q48,48 52,52" stroke="#9F0E7F" stroke-width="0.7" stroke-linecap="round" opacity="0.45"/>
  <!-- Tendril 4 - down -->
  <path d="M32,39 Q30,46 32,52 Q33,56 32,60" stroke="#9F0E7F" stroke-width="1.6" stroke-linecap="round" opacity="0.85"/>
  <path d="M31,50 Q26,52 22,56" stroke="#9F0E7F" stroke-width="0.8" stroke-linecap="round" opacity="0.5"/>
  <!-- Tendril 5 - lower left -->
  <path d="M27,37 Q22,42 18,46 Q14,50 10,54" stroke="#9F0E7F" stroke-width="1.5" stroke-linecap="round" opacity="0.8"/>
  <path d="M20,44 Q16,44 12,46" stroke="#9F0E7F" stroke-width="0.7" stroke-linecap="round" opacity="0.45"/>
  <!-- Tendril 6 - left -->
  <path d="M25,32 Q18,34 12,32 Q8,30 4,32" stroke="#9F0E7F" stroke-width="1.6" stroke-linecap="round" opacity="0.85"/>
  <path d="M14,32 Q12,28 8,26" stroke="#9F0E7F" stroke-width="0.8" stroke-linecap="round" opacity="0.5"/>
  <!-- Tendril 7 - upper left -->
  <path d="M27,27 Q22,22 18,16 Q16,12 12,8" stroke="#9F0E7F" stroke-width="1.8" stroke-linecap="round" opacity="0.9"/>
  <path d="M20,18 Q16,18 12,16" stroke="#9F0E7F" stroke-width="0.8" stroke-linecap="round" opacity="0.5"/>
  <path d="M18,20 Q16,16 14,12" stroke="#9F0E7F" stroke-width="0.6" stroke-linecap="round" opacity="0.4"/>
  <!-- Tendril 8 - up -->
  <path d="M32,25 Q34,18 32,12 Q30,8 32,4" stroke="#9F0E7F" stroke-width="1.5" stroke-linecap="round" opacity="0.8"/>
  <path d="M33,14 Q38,10 40,6" stroke="#9F0E7F" stroke-width="0.7" stroke-linecap="round" opacity="0.45"/>
</svg>