<svg xmlns="http://www.w3.org/2000/svg" viewBox="0 0 64 64" fill="none">
  <!-- Null: Black void rectangle at center with grid lines being "erased" -->
  <!-- Background grid lines that get broken by the void -->
  <!-- Horizontal grid lines -->
  <line x1="2" y1="12" x2="20" y2="12" stroke="#D4D4D4" stroke-width="0.6" stroke-linecap="round" opacity="0.5"/>
  <line x1="44" y1="12" x2="62" y2="12" stroke="#D4D4D4" stroke-width="0.6" stroke-linecap="round" opacity="0.5"/>
  <line x1="2" y1="22" x2="20" y2="22" stroke="#D4D4D4" stroke-width="0.6" stroke-linecap="round" opacity="0.4"/>
  <line x1="44" y1="22" x2="62" y2="22" stroke="#D4D4D4" stroke-width="0.6" stroke-linecap="round" opacity="0.4"/>
  <line x1="2" y1="32" x2="20" y2="32" stroke="#D4D4D4" stroke-width="0.8" stroke-linecap="round" opacity="0.6"/>
  <line x1="44" y1="32" x2="62" y2="32" stroke="#D4D4D4" stroke-width="0.8" stroke-linecap="round" opacity="0.6"/>
  <line x1="2" y1="42" x2="20" y2="42" stroke="#D4D4D4" stroke-width="0.6" stroke-linecap="round" opacity="0.4"/>
  <line x1="44" y1="42" x2="62" y2="42" stroke="#D4D4D4" stroke-width="0.6" stroke-linecap="round" opacity="0.4"/>
  <line x1="2" y1="52" x2="20" y2="52" stroke="#D4D4D4" stroke-width="0.6" stroke-linecap="round" opacity="0.5"/>
  <line x1="44" y1="52" x2="62" y2="52" stroke="#D4D4D4" stroke-width="0.6" stroke-linecap="round" opacity="0.5"/>
  <!-- Vertical grid lines -->
  <line x1="12" y1="2" x2="12" y2="20" stroke="#D4D4D4" stroke-width="0.6" stroke-linecap="round" opacity="0.5"/>
  <line x1="12" y1="44" x2="12" y2="62" stroke="#D4D4D4" stroke-width="0.6" stroke-linecap="round" opacity="0.5"/>
  <line x1="22" y1="2" x2="22" y2="20" stroke="#D4D4D4" stroke-width="0.6" stroke-linecap="round" opacity="0.4"/>
  <line x1="22" y1="44" x2="22" y2="62" stroke="#D4D4D4" stroke-width="0.6" stroke-linecap="round" opacity="0.4"/>
  <line x1="32" y1="2" x2="32" y2="20" stroke="#D4D4D4" stroke-width="0.8" stroke-linecap="round" opacity="0.6"/>
  <line x1="32" y1="44" x2="32" y2="62" stroke="#D4D4D4" stroke-width="0.8" stroke-linecap="round" opacity="0.6"/>
  <line x1="42" y1="2" x2="42" y2="20" stroke="#D4D4D4" stroke-width="0.6" stroke-linecap="round" opacity="0.4"/>
  <line x1="42" y1="44" x2="42" y2="62" stroke="#D4D4D4" stroke-width="0.6" stroke-linecap="round" opacity="0.4"/>
  <line x1="52" y1="2" x2="52" y2="20" stroke="#D4D4D4" stroke-width="0.6" stroke-linecap="round" opacity="0.5"/>
  <line x1="52" y1="44" x2="52" y2="62" stroke="#D4D4D4" stroke-width="0.6" stroke-linecap="round" opacity="0.5"/>
  <!-- Fading line stubs at the void edge (lines being consumed) -->
  <line x1="20" y1="12" x2="20.5" y2="12" stroke="#D4D4D4" stroke-width="0.4" stroke-linecap="round" opacity="0.15"/>
  <line x1="20" y1="32" x2="21" y2="32" stroke="#D4D4D4" stroke-width="0.5" stroke-linecap="round" opacity="0.2"/>
  <line x1="32" y1="20" x2="32" y2="20.5" stroke="#D4D4D4" stroke-width="0.5" stroke-linecap="round" opacity="0.2"/>
  <line x1="43.5" y1="32" x2="44" y2="32" stroke="#D4D4D4" stroke-width="0.5" stroke-linecap="round" opacity="0.15"/>
  <!-- The Void - solid black rectangle -->
  <rect x="20" y="20" width="24" height="24" fill="#000000" stroke="#D4D4D4" stroke-width="1.5"/>
  <!-- Corruption cracks at the void edges -->
  <line x1="20" y1="20" x2="17" y2="17" stroke="#D4D4D4" stroke-width="0.4" stroke-linecap="round" opacity="0.3"/>
  <line x1="44" y1="20" x2="47" y2="17" stroke="#D4D4D4" stroke-width="0.4" stroke-linecap="round" opacity="0.3"/>
  <line x1="44" y1="44" x2="47" y2="47" stroke="#D4D4D4" stroke-width="0.4" stroke-linecap="round" opacity="0.3"/>
  <line x1="20" y1="44" x2="17" y2="47" stroke="#D4D4D4" stroke-width="0.4" stroke-linecap="round" opacity="0.3"/>
  <!-- Inner void detail - faint diagonal -->
  <line x1="24" y1="24" x2="40" y2="40" stroke="#D4D4D4" stroke-width="0.3" stroke-linecap="round" opacity="0.1"/>
  <line x1="40" y1="24" x2="24" y2="40" stroke="#D4D4D4" stroke-width="0.3" stroke-linecap="round" opacity="0.1"/>
</svg>