<svg xmlns="http://www.w3.org/2000/svg" viewBox="0 0 64 64" fill="none">
  <!-- Swarm: Cloud of 15-20 tiny triangles forming an amorphous cluster -->
  <!-- Dense center triangles (larger, full opacity) -->
  <polygon points="30,28 33,24 36,28" stroke="#FCE323" stroke-width="1.2" stroke-linecap="round" stroke-linejoin="round" opacity="1"/>
  <polygon points="28,34 31,30 34,34" stroke="#FCE323" stroke-width="1.2" stroke-linecap="round" stroke-linejoin="round" opacity="1"/>
  <polygon points="34,32 37,28 40,32" stroke="#FCE323" stroke-width="1.2" stroke-linecap="round" stroke-linejoin="round" opacity="0.95"/>
  <polygon points="32,38 35,34 38,38" stroke="#FCE323" stroke-width="1.1" stroke-linecap="round" stroke-linejoin="round" opacity="0.95"/>
  <polygon points="26,30 29,26 32,30" stroke="#FCE323" stroke-width="1.1" stroke-linecap="round" stroke-linejoin="round" opacity="0.9"/>
  <!-- Mid-density triangles (medium) -->
  <polygon points="22,28 24,25 26,28" stroke="#FCE323" stroke-width="1" stroke-linecap="round" stroke-linejoin="round" opacity="0.85"/>
  <polygon points="38,26 40,23 42,26" stroke="#FCE323" stroke-width="1" stroke-linecap="round" stroke-linejoin="round" opacity="0.85"/>
  <polygon points="36,40 38,37 40,40" stroke="#FCE323" stroke-width="1" stroke-linecap="round" stroke-linejoin="round" opacity="0.8"/>
  <polygon points="24,36 26,33 28,36" stroke="#FCE323" stroke-width="1" stroke-linecap="round" stroke-linejoin="round" opacity="0.8"/>
  <polygon points="30,22 32,19 34,22" stroke="#FCE323" stroke-width="1" stroke-linecap="round" stroke-linejoin="round" opacity="0.8"/>
  <polygon points="28,40 30,37 32,40" stroke="#FCE323" stroke-width="1" stroke-linecap="round" stroke-linejoin="round" opacity="0.75"/>
  <polygon points="40,34 42,31 44,34" stroke="#FCE323" stroke-width="0.9" stroke-linecap="round" stroke-linejoin="round" opacity="0.75"/>
  <!-- Dispersing edge triangles (smaller, lower opacity) -->
  <polygon points="18,24 20,22 22,24" stroke="#FCE323" stroke-width="0.8" stroke-linecap="round" stroke-linejoin="round" opacity="0.6"/>
  <polygon points="42,22 44,20 46,22" stroke="#FCE323" stroke-width="0.8" stroke-linecap="round" stroke-linejoin="round" opacity="0.55"/>
  <polygon points="44,38 46,36 48,38" stroke="#FCE323" stroke-width="0.7" stroke-linecap="round" stroke-linejoin="round" opacity="0.5"/>
  <polygon points="20,38 22,36 24,38" stroke="#FCE323" stroke-width="0.7" stroke-linecap="round" stroke-linejoin="round" opacity="0.5"/>
  <polygon points="26,18 28,16 30,18" stroke="#FCE323" stroke-width="0.7" stroke-linecap="round" stroke-linejoin="round" opacity="0.5"/>
  <polygon points="34,44 36,42 38,44" stroke="#FCE323" stroke-width="0.7" stroke-linecap="round" stroke-linejoin="round" opacity="0.45"/>
  <!-- Outermost stragglers (tiny, faint) -->
  <polygon points="14,22 15.5,20 17,22" stroke="#FCE323" stroke-width="0.6" stroke-linecap="round" stroke-linejoin="round" opacity="0.35"/>
  <polygon points="48,28 49.5,26 51,28" stroke="#FCE323" stroke-width="0.6" stroke-linecap="round" stroke-linejoin="round" opacity="0.3"/>
  <polygon points="24,44 25.5,42 27,44" stroke="#FCE323" stroke-width="0.6" stroke-linecap="round" stroke-linejoin="round" opacity="0.3"/>
  <polygon points="46,42 47.5,40 49,42" stroke="#FCE323" stroke-width="0.5" stroke-linecap="round" stroke-linejoin="round" opacity="0.25"/>
</svg>