<svg xmlns="http://www.w3.org/2000/svg" viewBox="0 0 64 64" fill="none">
  <!-- Main irregular dark magenta patch -->
  <path d="M24,26 Q20,22 22,18 L24,14 Q26,16 28,14 Q32,12 34,16 Q38,14 40,18 Q44,16 46,22 Q48,26 46,30 Q50,32 48,36 Q50,40 46,42 Q48,46 44,48 Q42,52 38,50 Q36,52 32,50 Q28,52 26,48 Q22,50 20,46 Q16,44 18,40 Q14,38 16,34 Q14,30 18,28 Q20,28 24,26 Z" fill="#9F0E7F" fill-opacity="0.2" stroke="#9F0E7F" stroke-width="1.5" stroke-linejoin="round"/>
  <!-- Branching tendrils extending outward -->
  <path d="M24,14 L22,8 M22,8 L20,6" stroke="#9F0E7F" stroke-width="1" stroke-linecap="round"/>
  <path d="M40,18 L44,10 M44,10 L46,8" stroke="#9F0E7F" stroke-width="1" stroke-linecap="round"/>
  <path d="M48,36 L56,38 M56,38 L60,40" stroke="#9F0E7F" stroke-width="1" stroke-linecap="round"/>
  <path d="M16,34 L8,32 M8,32 L4,30" stroke="#9F0E7F" stroke-width="1" stroke-linecap="round"/>
  <path d="M44,48 L48,54 M48,54 L50,58" stroke="#9F0E7F" stroke-width="1" stroke-linecap="round"/>
  <path d="M26,48 L22,56 M22,56 L20,60" stroke="#9F0E7F" stroke-width="1" stroke-linecap="round"/>
  <!-- Small branch forks -->
  <path d="M22,8 L18,6" stroke="#9F0E7F" stroke-width="0.7" stroke-linecap="round" opacity="0.6"/>
  <path d="M56,38 L58,34" stroke="#9F0E7F" stroke-width="0.7" stroke-linecap="round" opacity="0.6"/>
  <path d="M48,54 L52,56" stroke="#9F0E7F" stroke-width="0.7" stroke-linecap="round" opacity="0.6"/>
  <path d="M8,32 L6,36" stroke="#9F0E7F" stroke-width="0.7" stroke-linecap="round" opacity="0.6"/>
</svg>
