<svg xmlns="http://www.w3.org/2000/svg" viewBox="0 0 64 64" fill="none">
  <!-- Left wall -->
  <rect x="4" y="10" width="10" height="44" stroke="#888888" stroke-width="2" stroke-linejoin="round"/>
  <!-- Right wall -->
  <rect x="50" y="10" width="10" height="44" stroke="#888888" stroke-width="2" stroke-linejoin="round"/>
  <!-- Left wall teeth (chevrons pointing right) -->
  <polyline points="14,20 18,24 14,28" stroke="#888888" stroke-width="1.5" stroke-linecap="round" stroke-linejoin="round"/>
  <polyline points="14,32 18,36 14,40" stroke="#888888" stroke-width="1.5" stroke-linecap="round" stroke-linejoin="round"/>
  <polyline points="14,44 18,48 14,52" stroke="#888888" stroke-width="1.5" stroke-linecap="round" stroke-linejoin="round"/>
  <!-- Right wall teeth (chevrons pointing left) -->
  <polyline points="50,20 46,24 50,28" stroke="#888888" stroke-width="1.5" stroke-linecap="round" stroke-linejoin="round"/>
  <polyline points="50,32 46,36 50,40" stroke="#888888" stroke-width="1.5" stroke-linecap="round" stroke-linejoin="round"/>
  <polyline points="50,44 46,48 50,52" stroke="#888888" stroke-width="1.5" stroke-linecap="round" stroke-linejoin="round"/>
  <!-- Inward arrows -->
  <line x1="22" y1="32" x2="28" y2="32" stroke="#888888" stroke-width="1" stroke-linecap="round"/>
  <polyline points="26,29 29,32 26,35" stroke="#888888" stroke-width="1" stroke-linecap="round" stroke-linejoin="round"/>
  <line x1="42" y1="32" x2="36" y2="32" stroke="#888888" stroke-width="1" stroke-linecap="round"/>
  <polyline points="38,29 35,32 38,35" stroke="#888888" stroke-width="1" stroke-linecap="round" stroke-linejoin="round"/>
</svg>
