<svg xmlns="http://www.w3.org/2000/svg" viewBox="0 0 64 64" fill="none">
  <!-- Black filled irregular blob -->
  <path d="M20,22 Q18,16 24,14 Q30,12 36,16 Q44,14 48,20 Q52,26 50,34 Q52,42 46,46 Q40,52 32,50 Q24,52 18,46 Q14,40 16,32 Q14,26 20,22 Z" fill="#111111" stroke="#D4D4D4" stroke-width="1.2"/>
  <!-- Lines approaching from left being eaten/broken -->
  <line x1="2" y1="26" x2="14" y2="24" stroke="#D4D4D4" stroke-width="1" stroke-linecap="round"/>
  <line x1="4" y1="32" x2="12" y2="32" stroke="#D4D4D4" stroke-width="1" stroke-linecap="round" opacity="0.7"/>
  <line x1="2" y1="40" x2="10" y2="42" stroke="#D4D4D4" stroke-width="1" stroke-linecap="round" opacity="0.5"/>
  <!-- Lines approaching from right being eaten -->
  <line x1="62" y1="22" x2="52" y2="20" stroke="#D4D4D4" stroke-width="1" stroke-linecap="round"/>
  <line x1="60" y1="36" x2="54" y2="34" stroke="#D4D4D4" stroke-width="1" stroke-linecap="round" opacity="0.7"/>
  <!-- Lines approaching from top -->
  <line x1="30" y1="2" x2="28" y2="12" stroke="#D4D4D4" stroke-width="1" stroke-linecap="round" opacity="0.6"/>
  <line x1="40" y1="4" x2="42" y2="12" stroke="#D4D4D4" stroke-width="1" stroke-linecap="round" opacity="0.5"/>
  <!-- Lines approaching from bottom -->
  <line x1="28" y1="62" x2="26" y2="52" stroke="#D4D4D4" stroke-width="1" stroke-linecap="round" opacity="0.6"/>
  <line x1="42" y1="60" x2="44" y2="50" stroke="#D4D4D4" stroke-width="1" stroke-linecap="round" opacity="0.4"/>
</svg>
