<svg xmlns="http://www.w3.org/2000/svg" viewBox="0 0 64 64" fill="none">
  <!-- Central starburst/explosion shape -->
  <polygon points="32,22 34,28 40,24 36,30 42,32 36,34 40,40 34,36 32,42 30,36 24,40 28,34 22,32 28,30 24,24 30,28" stroke="#F32649" stroke-width="1.5" stroke-linejoin="round" fill="#F32649" fill-opacity="0.15"/>
  <!-- Radiating dots outward in all directions -->
  <circle cx="32" cy="8" r="1.5" fill="#F32649" opacity="0.7"/>
  <circle cx="48" cy="12" r="1.3" fill="#F32649" opacity="0.6"/>
  <circle cx="56" cy="24" r="1.2" fill="#F32649" opacity="0.55"/>
  <circle cx="56" cy="40" r="1.4" fill="#F32649" opacity="0.5"/>
  <circle cx="48" cy="52" r="1.3" fill="#F32649" opacity="0.6"/>
  <circle cx="32" cy="56" r="1.5" fill="#F32649" opacity="0.65"/>
  <circle cx="16" cy="52" r="1.2" fill="#F32649" opacity="0.55"/>
  <circle cx="8" cy="40" r="1.3" fill="#F32649" opacity="0.5"/>
  <circle cx="8" cy="24" r="1.4" fill="#F32649" opacity="0.6"/>
  <circle cx="16" cy="12" r="1.2" fill="#F32649" opacity="0.55"/>
  <!-- Small trail lines from center to dots -->
  <line x1="32" y1="22" x2="32" y2="12" stroke="#F32649" stroke-width="0.6" stroke-linecap="round" opacity="0.3"/>
  <line x1="40" y1="24" x2="48" y2="16" stroke="#F32649" stroke-width="0.6" stroke-linecap="round" opacity="0.3"/>
  <line x1="42" y1="32" x2="52" y2="28" stroke="#F32649" stroke-width="0.6" stroke-linecap="round" opacity="0.3"/>
  <line x1="40" y1="40" x2="48" y2="48" stroke="#F32649" stroke-width="0.6" stroke-linecap="round" opacity="0.3"/>
  <line x1="32" y1="42" x2="32" y2="52" stroke="#F32649" stroke-width="0.6" stroke-linecap="round" opacity="0.3"/>
  <line x1="24" y1="40" x2="16" y2="48" stroke="#F32649" stroke-width="0.6" stroke-linecap="round" opacity="0.3"/>
  <line x1="22" y1="32" x2="12" y2="28" stroke="#F32649" stroke-width="0.6" stroke-linecap="round" opacity="0.3"/>
  <line x1="24" y1="24" x2="16" y2="16" stroke="#F32649" stroke-width="0.6" stroke-linecap="round" opacity="0.3"/>
</svg>
